<svg xmlns="http://www.w3.org/2000/svg" viewBox="0 0 640 360" role="img" aria-labelledby="title">
  <title id="title">Azulejista organizando revestimentos</title>
  <defs>
    <linearGradient id="bg" x1="0" x2="1" y1="0" y2="1">
      <stop offset="0" stop-color="#f8fbff"/>
      <stop offset="1" stop-color="#eaf3ff"/>
    </linearGradient>
  </defs>
  <rect width="640" height="360" rx="28" fill="url(#bg)"/>
  <g transform="translate(100 58)">
    <rect x="0" y="0" width="128" height="108" rx="14" fill="#1269e2"/>
    <rect x="148" y="0" width="128" height="108" rx="14" fill="#fff"/>
    <rect x="296" y="0" width="128" height="108" rx="14" fill="#15c99c"/>
    <rect x="0" y="128" width="128" height="108" rx="14" fill="#fff"/>
    <rect x="148" y="128" width="128" height="108" rx="14" fill="#061b49"/>
    <rect x="296" y="128" width="128" height="108" rx="14" fill="#fff"/>
    <g stroke="#dce6f2" stroke-width="6">
      <path d="M128 0v236M276 0v236M0 108h424M0 128h424"/>
    </g>
  </g>
  <path d="M438 257l74-74 28 28-74 74h-28v-28Z" fill="#f3b23f"/>
  <path d="M512 183l18-18 28 28-18 18z" fill="#061b49"/>
</svg>
