<svg xmlns="http://www.w3.org/2000/svg" viewBox="0 0 640 360" role="img" aria-labelledby="title">
  <title id="title">Pintor aplicando tinta em uma parede</title>
  <defs>
    <linearGradient id="bg" x1="0" x2="1" y1="0" y2="1">
      <stop offset="0" stop-color="#eaf3ff"/>
      <stop offset="1" stop-color="#d8fff2"/>
    </linearGradient>
    <linearGradient id="paint" x1="0" x2="1">
      <stop offset="0" stop-color="#1269e2"/>
      <stop offset="1" stop-color="#15c99c"/>
    </linearGradient>
  </defs>
  <rect width="640" height="360" rx="28" fill="url(#bg)"/>
  <rect x="74" y="86" width="492" height="204" rx="20" fill="#fff" opacity=".9"/>
  <rect x="108" y="126" width="240" height="38" rx="10" fill="url(#paint)"/>
  <rect x="108" y="182" width="182" height="38" rx="10" fill="#dce6f2"/>
  <rect x="108" y="238" width="282" height="38" rx="10" fill="#dce6f2"/>
  <path d="M410 118h74c22 0 40 18 40 40v4h-74c-22 0-40-18-40-40v-4Z" fill="#061b49"/>
  <rect x="442" y="154" width="32" height="78" rx="10" fill="#1269e2"/>
  <rect x="451" y="224" width="14" height="74" rx="7" fill="#061b49"/>
  <circle cx="498" cy="142" r="20" fill="#15c99c"/>
</svg>
